<?xml version="1.0" standalone="no"?><!DOCTYPE svg PUBLIC "-//W3C//DTD SVG 1.1//EN" "http://www.w3.org/Graphics/SVG/1.1/DTD/svg11.dtd"><svg t="1607582996781" class="icon" viewBox="0 0 1024 1024" version="1.1" xmlns="http://www.w3.org/2000/svg" p-id="3181" xmlns:xlink="http://www.w3.org/1999/xlink" width="32" height="32"><defs><style type="text/css"></style></defs><path d="M0 512c0 282.794667 229.205333 512 512 512s512-229.205333 512-512S794.794667 0 512 0 0 229.205333 0 512z m393.808314 122.10698l327.479215-328.523294a35.70949 35.70949 0 0 1 50.808471 0.120471 36.030745 36.030745 0 0 1 0.080314 50.898823L412.300549 717.583059a35.669333 35.669333 0 0 1-26.282667 11.38447c-12.950588 0-24.897255-6.927059-31.322353-18.17098L193.495843 547.70949a35.920314 35.920314 0 0 1 13.392314-49.061647A35.920314 35.920314 0 0 1 256 512l137.808314 122.10698z" fill="#67c23a" p-id="3182"></path></svg>