<?xml version="1.0" standalone="no"?><!DOCTYPE svg PUBLIC "-//W3C//DTD SVG 1.1//EN" "http://www.w3.org/Graphics/SVG/1.1/DTD/svg11.dtd"><svg t="1607234284802" class="icon" viewBox="0 0 1024 1024" version="1.1" xmlns="http://www.w3.org/2000/svg" p-id="3251" xmlns:xlink="http://www.w3.org/1999/xlink" width="32" height="32"><defs><style type="text/css"></style></defs><path d="M550.4 166.4m-166.4 0a166.4 166.4 0 1 0 332.8 0 166.4 166.4 0 1 0-332.8 0Z" fill="#4F8BEE" fill-opacity=".9" p-id="3252"></path><path d="M204.8 371.2m-140.8 0a140.8 140.8 0 1 0 281.6 0 140.8 140.8 0 1 0-281.6 0Z" fill="#4F8BEE" fill-opacity=".75" p-id="3253"></path><path d="M204.8 729.6m-115.2 0a115.2 115.2 0 1 0 230.4 0 115.2 115.2 0 1 0-230.4 0Z" fill="#4F8BEE" fill-opacity=".6" p-id="3254"></path><path d="M550.4 934.4m-89.6 0a89.6 89.6 0 1 0 179.2 0 89.6 89.6 0 1 0-179.2 0Z" fill="#4F8BEE" fill-opacity=".45" p-id="3255"></path><path d="M908.8 729.6m-64 0a64 64 0 1 0 128 0 64 64 0 1 0-128 0Z" fill="#4F8BEE" fill-opacity=".3" p-id="3256"></path><path d="M896 358.4m-38.4 0a38.4 38.4 0 1 0 76.8 0 38.4 38.4 0 1 0-76.8 0Z" fill="#4F8BEE" fill-opacity=".15" p-id="3257"></path></svg>