<?xml version="1.0" standalone="no"?><!DOCTYPE svg PUBLIC "-//W3C//DTD SVG 1.1//EN" "http://www.w3.org/Graphics/SVG/1.1/DTD/svg11.dtd"><svg t="1608281040171" class="icon" viewBox="0 0 1024 1024" version="1.1" xmlns="http://www.w3.org/2000/svg" p-id="3143" data-spm-anchor-id="a313x.7781069.0.i0" xmlns:xlink="http://www.w3.org/1999/xlink" width="32" height="32"><defs><style type="text/css"></style></defs><path d="M511.979521 1023.957335a508.521752 508.521752 0 0 1-362.010829-149.966772A508.649747 508.649747 0 0 1 0.00192 511.979734a508.649747 508.649747 0 0 1 149.966772-362.010828A508.521752 508.521752 0 0 1 511.979521 0.002133a508.564417 508.564417 0 0 1 362.053493 149.966773A508.649747 508.649747 0 0 1 1023.957122 511.979734a508.649747 508.649747 0 0 1-149.966772 362.010829A508.564417 508.564417 0 0 1 511.979521 1023.957335z m0.469313-342.811668a85.926907 85.926907 0 0 0-85.3296 90.150722 85.926907 85.926907 0 0 0 85.3296 90.108058 87.334846 87.334846 0 0 0 86.353555-90.108058 87.377511 87.377511 0 0 0-86.353555-90.108058z m-69.458295-546.109442l4.693128 130.511624 19.753803 346.352847h90.065393l19.753802-346.352847 4.650463-130.511624z" p-id="3144" data-spm-anchor-id="a313x.7781069.0.i1" class="selected" fill="#e6a23c"></path></svg>