<?xml version="1.0" standalone="no"?><!DOCTYPE svg PUBLIC "-//W3C//DTD SVG 1.1//EN" "http://www.w3.org/Graphics/SVG/1.1/DTD/svg11.dtd"><svg t="1607585705165" class="icon" viewBox="0 0 1024 1024" version="1.1" xmlns="http://www.w3.org/2000/svg" p-id="4863" xmlns:xlink="http://www.w3.org/1999/xlink" width="32" height="32"><defs><style type="text/css"></style></defs><path d="M506.002286 24.380952C781.360762 24.380952 999.619048 242.590476 999.619048 517.997714c0 263.314286-218.258286 481.621333-493.616762 481.621334C242.688 999.619048 24.380952 781.263238 24.380952 517.997714 24.380952 242.736762 242.736762 24.380952 506.002286 24.380952z m-33.743238 195.047619l18.822095 419.596191H555.885714l18.870857-419.596191H472.259048z m50.809904 467.968c-16.384 0-30.329905 4.87619-41.788952 16.384-12.288 10.630095-18.041905 24.576-18.041905 41.788953 0 16.384 5.753905 30.329905 18.041905 41.788952 11.459048 11.459048 25.35619 17.212952 41.788952 17.212953 16.384 0 31.158857-5.753905 43.398096-16.384 11.50781-11.459048 17.261714-25.404952 17.261714-42.617905s-5.753905-31.158857-17.212952-41.788953c-11.50781-11.50781-26.233905-16.384-43.446858-16.384z" fill="#e6a23c" p-id="4864" data-spm-anchor-id="a313x.7781069.0.i6" class="selected"></path></svg>