<?xml version="1.0" standalone="no"?><!DOCTYPE svg PUBLIC "-//W3C//DTD SVG 1.1//EN" "http://www.w3.org/Graphics/SVG/1.1/DTD/svg11.dtd"><svg t="1605856483520" class="icon" viewBox="0 0 1024 1024" version="1.1" xmlns="http://www.w3.org/2000/svg" p-id="14093" data-spm-anchor-id="a313x.7781069.0.i7" xmlns:xlink="http://www.w3.org/1999/xlink" width="200" height="200"><defs><style type="text/css"></style></defs><path d="M767.977 379.938c-27.48-61.558-71.68-113.95-126.758-151.641 24.971 27.861 45.84 59.492 61.289 94.111 20.283 45.059 31.455 95.039 31.455 147.739 0 82.241-27.373 158.091-73.818 218.96-5.156 7.08-10.742 14.014-16.875 20.557-50.781 55.84-123.906 90.957-205.337 90.957-54.673 0-105.503-16.016-148.462-43.301 50.879 61.563 127.793 100.84 213.931 100.84 81.431 0 154.556-35.137 205.337-90.957 6.123-6.543 11.719-13.486 16.885-20.566 46.436-60.869 73.809-136.709 73.809-218.965-0.001-52.695-11.173-102.666-31.456-147.734M390.469 398.101c3.688-9.192 6.75-18.66 9.434-28.261-6.197-12.47-11.281-25.679-14.751-39.686-13.236 8.55-25.535 18.278-37.024 28.835 12.174 15.109 26.382 28.363 42.341 39.112" fill="#4510E6" opacity=".1" p-id="14094"></path><path d="M503.396 883.16c-80.283 0-155.896-31.124-212.913-87.638-56.674-56.175-88.408-130.899-89.441-210.538-0.156-1.811-0.156-3.319-0.156-4.334 0-121.192 71.954-230.373 183.312-278.15a25.002 25.002 0 0 1 34.788 21.113c2.246 30.072 12.438 58.64 29.305 83.021 13.62-31.477 20.716-65.61 20.716-100.362v-0.195a25.141 25.141 0 0 1-0.141-2.454c-0.361-43.512-11.997-86.182-33.65-123.396-6.151-10.572-3.75-24.042 5.674-31.837l0.376-0.311 0.301-0.247a25.02 25.02 0 0 1 18.941-7.042c71.577 4.308 140.399 28.387 199.027 69.634 57.378 40.368 102.768 95.465 131.262 159.334 22.299 49.499 33.624 102.66 33.624 157.925 0 43.047-7.011 85.308-20.838 125.607-13.371 38.97-32.856 75.407-57.918 108.305-6.156 8.417-12.228 15.802-18.553 22.563-28.072 30.827-61.459 55.13-99.239 72.236-39.227 17.76-81.107 26.766-124.477 26.766z m-252.51-302.308c0.087 0.809 0.134 1.622 0.141 2.437 1.232 137.78 114.444 249.872 252.369 249.872 70.895 0 138.998-30.172 186.848-82.778 0.084-0.093 0.169-0.185 0.254-0.275 5.017-5.353 9.905-11.31 14.942-18.21 0.104-0.142 0.209-0.283 0.315-0.423 44.922-58.887 68.666-129.357 68.666-203.792 0-48.136-9.841-94.388-29.249-137.471-45.925-102.939-138.435-174.828-247.141-194.625 13.25 33.683 20.362 69.767 20.819 106.356 0.155 1.805 0.155 3.313 0.155 4.329 0 55.818-15.303 110.334-44.256 157.657a24.997 24.997 0 0 1-38.558 5.064c-30.372-28.899-51.509-65.599-61.372-105.784-76.202 45.043-123.932 127.261-123.932 217.441l-0.001 0.202z" fill="#4F8BEE" p-id="14095" data-spm-anchor-id="a313x.7781069.0.i1" class=""></path><path d="M662.604 608.401c-2.812 0-5.669-0.478-8.466-1.484-12.991-4.676-19.732-18.998-15.056-31.989 9.433-26.206 14.216-53.775 14.216-81.943 0-34.505-7.057-67.686-20.973-98.62-5.665-12.592-0.05-27.392 12.542-33.056 12.593-5.667 27.393-0.049 33.056 12.542 16.838 37.428 25.375 77.51 25.375 119.134 0 33.957-5.777 67.225-17.171 98.877-3.668 10.194-13.278 16.539-23.523 16.539z" fill="#BAD4FF" p-id="14096" data-spm-anchor-id="a313x.7781069.0.i5" class="selected"></path></svg>