<?xml version="1.0" standalone="no"?><!DOCTYPE svg PUBLIC "-//W3C//DTD SVG 1.1//EN" "http://www.w3.org/Graphics/SVG/1.1/DTD/svg11.dtd"><svg t="1606122483907" class="icon" viewBox="0 0 1024 1024" version="1.1" xmlns="http://www.w3.org/2000/svg" p-id="9290" xmlns:xlink="http://www.w3.org/1999/xlink" width="32" height="32"><defs><style type="text/css"></style></defs><path d="M814.76096 148.48H209.23904A153.26208 153.26208 0 0 0 56.32 301.74208v415.40096A153.26208 153.26208 0 0 0 209.23904 870.4h605.52192A153.26208 153.26208 0 0 0 967.68 717.13792V301.74208A153.26208 153.26208 0 0 0 814.76096 148.48z m83.456 568.65792a83.62496 83.62496 0 0 1-83.456 83.62496H209.23904a83.62496 83.62496 0 0 1-83.456-83.62496V301.74208a83.62496 83.62496 0 0 1 83.456-83.63008h605.52192a83.62496 83.62496 0 0 1 83.456 83.61984v415.40096z m-137.728-298.55744a72.42752 72.42752 0 0 0-111.4112 9.87648l-99.712 145.46432a2.8672 2.8672 0 0 1-2.14528 1.29536 2.81088 2.81088 0 0 1-2.38592-0.75264L463.28832 501.41696a72.52992 72.52992 0 0 0-102.272 5.59104l-123.0848 137.216a34.77504 34.77504 0 1 0 51.67104 46.55616l123.0848-137.216a3.03104 3.03104 0 0 1 4.28544-0.2304l81.51552 73.04192a72.41728 72.41728 0 0 0 108.1088-13.02528l99.71712-145.4592a3.03104 3.03104 0 0 1 4.66432-0.41472l86.15936 87.552a34.78016 34.78016 0 1 0 49.47456-48.896z m-316.2368-33.32608a47.00672 47.00672 0 1 0-46.90432-47.00672 46.95552 46.95552 0 0 0 46.90432 47.00672z" fill="#4F8BEE" p-id="9291"></path></svg>