<?xml version="1.0" standalone="no"?><!DOCTYPE svg PUBLIC "-//W3C//DTD SVG 1.1//EN" "http://www.w3.org/Graphics/SVG/1.1/DTD/svg11.dtd"><svg t="1605856999597" class="icon" viewBox="0 0 1024 1024" version="1.1" xmlns="http://www.w3.org/2000/svg" p-id="2753" xmlns:xlink="http://www.w3.org/1999/xlink" width="200" height="200"><defs><style type="text/css"></style></defs><path d="M902.4 818.1c-37-119.1-128.8-216.6-245.5-260.9-6.3-2.4-13.5-1.4-19 2.6-36.7 27-80.3 41.2-125.9 41.2-45.6 0-89.2-14.2-125.9-41.2-5.5-4-12.6-5-19-2.6C250.3 601.5 158.6 699 121.6 818.1c-10.4 33.4-4.4 68.8 16.4 97 20.8 28.2 52.8 44.4 87.8 44.4h572.4c35 0 67-16.2 87.8-44.4 20.8-28.2 26.8-63.5 16.4-97z m-48.7 73.3c-13.1 17.8-33.4 28.1-55.5 28.1H225.8c-22.1 0-42.4-10.2-55.5-28.1-13.1-17.8-16.9-40.2-10.3-61.3C192.3 726 271 640.2 371.6 598.6c41.6 27.8 89.9 42.5 140.4 42.5 50.4 0 98.8-14.7 140.4-42.5C753 640.2 831.7 726 864.1 830c6.5 21.2 2.8 43.5-10.4 61.4z" fill="#4F8BEE" p-id="2754" data-spm-anchor-id="a313x.7781069.0.i0" class="selected"></path><path d="M512 570.9c139.6 0 253.2-113.6 253.2-253.2C765.2 178 651.6 64.4 512 64.4S258.8 178 258.8 317.6c0 139.7 113.6 253.3 253.2 253.3z m0-466.3c117.5 0 213.1 95.6 213.1 213.1S629.5 530.8 512 530.8s-213.1-95.6-213.1-213.1S394.5 104.6 512 104.6z" fill="#4F8BEE" p-id="2755" data-spm-anchor-id="a313x.7781069.0.i1" class="selected"></path></svg>